<svg width="730" height="222" viewBox="0 0 730 222" fill="none" xmlns="http://www.w3.org/2000/svg">
<g clip-path="url(#clip0_1_4)">
<path d="M46.89 29.29C46.89 29.29 647.46 29.29 664.75 29.29C682.04 29.29 697.34 43.92 693.35 68.53C689.36 93.14 680.05 149 670.07 158.98C660.09 168.96 616.2 171.62 594.25 173.61C572.3 175.61 388.07 194.89 362.8 194.89C337.53 194.89 114.72 172.94 88.12 168.29C61.52 163.63 56.2 146.34 49.55 123.06C42.9 99.78 29.6 41.93 46.89 29.29Z" fill="white"/>
<path d="M29.9 7.81006C29.9 7.81006 658.82 7.81006 691.68 7.81006C724.54 7.81006 722.9 36.9801 718.8 57.9301C714.7 78.8801 703.19 135.98 699.08 154.88C694.97 173.78 681.83 193.49 652.25 195.96C622.67 198.42 366.96 221.02 364.08 221.43C361.2 221.84 357.1 222.05 352.99 221.64C348.88 221.23 79.2 197.61 66.46 195.97C53.73 194.33 27.43 183.24 21.68 154.07C15.93 124.9 2.38001 57.1001 0.330005 42.7201C-1.71999 28.3401 5.67001 7.81006 29.9 7.81006ZM628.97 173.9C656.08 171.44 670.6 149.8 673.61 138.02C676.62 126.24 684.29 79.4101 687.03 66.2701C689.77 53.1201 680.18 32.3101 659.64 32.3101C639.1 32.3101 77.69 32.3101 61.26 32.3101C44.83 32.3101 32.23 51.7601 34.15 63.5401C36.07 75.3201 43.46 114.2 47.57 134.74C51.68 155.28 70.57 171.16 88.92 173.35C107.27 175.54 352.92 198 358.4 198C364.7 198 601.86 176.37 628.97 173.9Z" fill="url(#paint0_linear_1_4)"/>
<path d="M294.42 107.89C294.2 106.58 294.03 105.27 293.89 103.96C293.75 102.65 293.66 101.33 293.6 100.02C293.49 97.45 293.68 94.91 294.17 92.38C294.66 89.85 295.7 87.47 297.28 85.23L298.64 83.39C299.47 82.3 300.17 81.41 300.74 80.73C301.31 80.05 302.13 79.25 303.21 78.35L303.09 78.36C303.87 77.87 303.96 77.25 303.37 76.52C302.78 75.79 301.89 75.07 300.7 74.36C299.51 73.65 298.19 73 296.72 72.4C295.26 71.8 294.04 71.36 293.07 71.07C289.98 73.51 287.63 75.62 286.03 77.4C284.43 79.18 283.02 80.86 281.81 82.42C281.43 82.96 281.06 83.47 280.68 83.95C280.3 84.43 279.88 84.94 279.43 85.49C276.99 88.36 274.74 91.21 272.66 94.03C270.58 96.85 268.57 99.69 266.61 102.54C266.24 103.22 265.77 103.91 265.2 104.63C264.63 105.35 264.12 106.04 263.67 106.72C261.65 108.13 260.01 109.89 258.74 112.02C258.02 113.23 257.55 114.43 257.26 115.64C255.56 117.51 253.78 119.19 251.92 120.67C249.99 122.2 247.96 123.31 245.83 123.99L244.75 124.04C244.5 123.85 244.35 123.07 244.29 121.69C244.25 120.77 244.38 119.69 244.69 118.46C245 117.23 245.38 115.94 245.84 114.6C246.3 113.26 246.82 111.92 247.41 110.58C247.99 109.24 248.58 107.96 249.16 106.75C249.38 106.21 249.61 105.69 249.87 105.19C250.13 104.68 250.33 104.23 250.47 103.83C250.82 102.69 250.53 101.57 249.61 100.46C248.68 99.35 247.5 98.39 246.07 97.59C244.64 96.79 243.14 96.22 241.56 95.85C239.99 95.49 238.73 95.53 237.79 95.96L237 96C236.9 97.52 236.58 99.22 236.02 101.08C235.46 102.95 234.78 104.86 233.99 106.8C233.01 108.23 231.74 109.86 230.19 111.71C228.63 113.56 227.01 115.34 225.33 117.06C223.65 118.78 221.99 120.28 220.37 121.57C218.75 122.86 217.38 123.63 216.27 123.87C214.85 124.19 213.69 124.26 212.8 124.07C211.91 123.88 211.18 123.5 210.59 122.93C210.01 122.36 209.6 121.67 209.36 120.86C209.12 120.05 208.99 119.18 208.95 118.26C208.91 117.21 208.98 116.15 209.17 115.09C209.36 114.03 209.56 113.1 209.77 112.3C210.26 110.63 210.94 108.81 211.81 106.82C212.68 104.84 213.74 102.85 214.97 100.85C216.2 98.85 217.58 96.93 219.1 95.09C220.62 93.25 222.27 91.59 224.04 90.13C225.81 88.67 227.66 87.49 229.58 86.58C231.5 85.67 233.49 85.21 235.57 85.19C236.77 85.21 237.76 85.46 238.54 85.95C239.32 86.45 239.92 87.06 240.36 87.8C240.79 88.54 241.1 89.35 241.3 90.23C241.5 91.11 241.65 91.91 241.76 92.63C241.77 92.89 241.82 93.14 241.91 93.36C242 93.59 242.05 93.83 242.06 94.1C242.08 94.63 242.42 95.01 243.07 95.24C243.72 95.48 244.44 95.56 245.24 95.49C246.03 95.42 246.77 95.24 247.43 94.95C248.1 94.66 248.42 94.28 248.4 93.82C248.42 92.43 248.3 91.06 248.04 89.68C247.78 88.31 247.31 87.03 246.62 85.83C245.93 84.64 244.99 83.61 243.79 82.74C242.59 81.87 241.11 81.27 239.34 80.95C237.41 80.64 235.37 80.53 233.21 80.62C229.78 80.77 226.48 81.45 223.29 82.67C220.11 83.89 217.08 85.47 214.21 87.41C211.34 89.35 208.69 91.53 206.28 93.98C203.87 96.42 201.78 98.93 200.01 101.51C199.03 102.93 198.17 104.35 197.38 105.77C196.15 107.74 194.78 109.81 193.26 111.98C191.26 114.83 189.11 117.64 186.79 120.41C184.47 123.18 181.97 125.82 179.28 128.34C176.59 130.86 173.81 133.09 170.94 135.02C168.07 136.95 165.07 138.47 161.97 139.55C158.86 140.64 155.71 141.15 152.51 141.09C149.23 141.1 146.74 139.84 145.04 137.3C143.33 134.77 142.4 131.46 142.22 127.38C142.09 124.29 142.43 120.94 143.23 117.35C143.89 114.03 144.77 110.89 145.89 107.94C147 104.99 148.18 102.11 149.42 99.29C150.51 96.74 152.06 93.69 154.06 90.14C156.07 86.59 158.38 82.9 161.02 79.07C163.65 75.23 166.54 71.4 169.7 67.58C172.85 63.76 176.08 60.29 179.38 57.18C182.68 54.07 186.05 51.48 189.47 49.38C192.9 47.29 196.2 46.05 199.38 45.65C201.3 45.63 202.81 45.93 203.91 46.54C205.01 47.15 205.59 48.12 205.65 49.43C205.68 50.15 205.52 51.18 205.18 52.51C204.77 54.24 204.04 56.17 202.97 58.29C201.9 60.41 200.69 62.49 199.34 64.53C197.99 66.57 196.61 68.4 195.2 70.05C193.79 71.69 192.51 72.9 191.34 73.68C192.23 74.04 193.14 74.28 194.07 74.4C194.99 74.53 195.89 74.57 196.77 74.53C198.84 74.44 200.48 74.01 201.69 73.23C202.89 72.45 203.76 71.79 204.3 71.24C205.74 69.4 207.12 67.51 208.43 65.58C209.74 63.65 210.9 61.75 211.9 59.89C212.9 58.04 213.68 56.24 214.25 54.5C214.81 52.76 215.07 51.17 215.01 49.72C214.9 47.22 213.62 45.22 211.16 43.7C208.7 42.19 204.52 41.56 198.62 41.81C193.52 42.03 188.51 43.1 183.6 45.02C178.69 46.94 173.97 49.48 169.43 52.64C164.89 55.8 160.57 59.46 156.48 63.62C152.38 67.78 148.62 72.2 145.18 76.86C141.74 81.52 138.65 86.32 135.91 91.25C133.16 96.18 130.89 101 129.1 105.73C127.3 110.45 125.98 114.94 125.12 119.2C124.26 123.46 124.02 127.26 124.41 130.6C124.76 133.09 125.55 135.36 126.8 137.42C128.04 139.48 129.66 141.25 131.64 142.75C133.62 144.25 135.95 145.45 138.62 146.36C141.29 147.27 144.27 147.75 147.55 147.81C153.62 147.81 159.5 146.54 165.18 143.99C170.86 141.44 176.17 138.12 181.11 134.02C185.76 130.16 189.98 125.81 193.78 121.01C193.93 121.73 194.14 122.47 194.43 123.22C194.97 124.62 195.82 125.9 196.99 127.07C198.16 128.24 199.74 129.24 201.73 130.08C203.72 130.92 206.16 131.37 209.04 131.45C210.79 131.38 212.54 131.02 214.27 130.39C216 129.76 217.7 128.94 219.38 127.95C221.05 126.96 222.68 125.83 224.27 124.58C225.85 123.33 227.38 122.01 228.83 120.63L228.89 122.01C228.99 124.38 229.95 126.38 231.78 128.02C233.61 129.66 236.48 130.52 240.4 130.62C242.08 130.61 243.61 130.43 244.99 130.08C246.37 129.72 247.61 129.29 248.71 128.78C249.81 128.27 250.78 127.74 251.64 127.17C252.49 126.61 253.19 126.12 253.73 125.7C255.25 124.53 256.66 123.3 258.02 122.03C258.79 123.5 259.99 124.86 261.65 126.1C264.62 128.31 269.18 129.49 275.34 129.62C278.29 129.63 281.03 129.23 283.56 128.43C286.08 127.63 288.23 126.5 290.01 125.04C291.78 123.58 293.11 121.83 293.98 119.78C294.85 117.73 295.2 115.53 295.02 113.16L294.42 107.89ZM281.13 119.48C280.86 120.71 280.43 121.78 279.83 122.7C279.23 123.62 278.42 124.36 277.41 124.93C276.4 125.5 275.17 125.75 273.73 125.68C272.61 125.66 271.36 125.37 269.98 124.8C268.6 124.23 267.4 123.31 266.39 122.04C266.05 121.59 265.77 121.08 265.54 120.49C265.31 119.91 265.19 119.32 265.17 118.73C265.13 117.74 265.35 116.84 265.83 116.03C266.31 115.22 266.96 114.52 267.78 113.92C268.59 113.33 269.53 112.84 270.59 112.47C271.65 112.1 272.7 111.89 273.74 111.84C275.18 111.78 276.88 112.37 278.85 113.6C279.23 113.25 279.35 112.67 279.19 111.86C279.04 111.04 278.76 110.18 278.36 109.28C277.96 108.37 277.55 107.53 277.11 106.76C276.68 105.99 276.34 105.51 276.09 105.32C274.87 104.91 273.58 104.64 272.22 104.5L274.03 101.95C275.01 100.52 276.02 99.06 277.08 97.57C278.13 96.08 279.19 94.65 280.25 93.28C279.91 94.61 279.68 95.89 279.57 97.12C279.46 98.35 279.43 99.55 279.48 100.73C279.54 102.05 279.67 103.39 279.89 104.77C280.11 106.15 280.32 107.46 280.54 108.7C280.75 109.88 280.94 111.06 281.11 112.24C281.28 113.42 281.39 114.57 281.44 115.69C281.51 116.98 281.4 118.25 281.13 119.48ZM328.3 84.7C328.69 84.09 328.94 83.67 329.09 83.42C328.91 83.77 328.58 84.43 328.09 85.41L328.3 84.7ZM323.46 69.58C322.79 68.88 322.45 68.31 322.43 67.84C322.46 66.72 322.63 65.48 322.93 64.11C323.23 62.75 323.59 61.3 324 59.76C324.49 58.09 324.92 56.41 325.28 54.71C325.65 53.01 325.88 51.41 325.97 49.89L327.17 49.84C328.04 49.67 329.19 49.92 330.62 50.58C332.05 51.25 333.44 52.06 334.8 53.02C336.16 53.99 337.32 54.96 338.28 55.94C339.24 56.92 339.73 57.61 339.75 58C339.48 59.07 338.95 60.31 338.17 61.73C337.39 63.15 336.59 64.57 335.78 65.98C335.04 67.33 334.34 68.66 333.67 69.98C333.01 71.29 332.43 72.75 331.94 74.35C331.06 74.26 330.07 73.95 328.97 73.44C327.87 72.93 326.84 72.33 325.9 71.64C324.94 70.96 324.13 70.27 323.46 69.58ZM329.09 83.41C329.21 83.18 329.26 83.08 329.25 83.12C329.24 83.16 329.18 83.27 329.09 83.41ZM483.91 78.57C483.45 77.27 482.7 76.12 481.65 75.11C480.6 74.1 479.23 73.25 477.55 72.57C475.87 71.88 473.81 71.46 471.39 71.3C467.8 71.12 464.1 71.78 460.3 73.26C456.5 74.74 452.89 76.61 449.48 78.86L453.62 71.86C454.81 69.77 456.03 67.57 457.29 65.28C458.55 62.99 459.74 60.79 460.84 58.7C461.95 56.61 462.95 54.72 463.83 53.04C464.72 51.36 465.34 50.08 465.7 49.2C466.05 48.06 465.72 46.96 464.72 45.88C463.72 44.8 462.46 43.9 460.95 43.17C459.44 42.44 457.86 41.95 456.21 41.69C454.56 41.43 453.23 41.52 452.21 41.96C451.24 45.43 449.69 49.48 447.57 54.12C445.45 58.76 443.16 63.37 440.72 67.96L437.49 73.93C435.49 77.64 433.49 81.38 431.49 85.16C430.04 87.9 428.71 90.62 427.49 93.33C427.42 93.4 427.34 93.47 427.27 93.55L426.03 95.28C425.21 96.63 424.42 97.9 423.68 99.09C422.93 100.28 422.22 101.31 421.54 102.2C418.44 106.29 415.42 109.53 412.49 111.93C409.55 114.33 406.99 116 404.8 116.95C403.93 117.32 403.38 117.31 403.12 116.92C402.86 116.54 402.77 116.18 402.83 115.84C402.91 114.06 403.12 112.4 403.46 110.87C403.8 109.34 404.21 107.84 404.71 106.37C405.21 104.9 405.78 103.42 406.44 101.95C407.1 100.47 407.87 98.89 408.75 97.2C409.7 95.25 410.8 92.93 412.05 90.24C413.29 87.55 414.52 84.6 415.75 81.38C416.04 80.64 415.9 79.83 415.35 78.93C414.79 78.03 414.04 77.19 413.09 76.41C412.14 75.63 411.09 74.98 409.95 74.47C408.81 73.96 407.8 73.72 406.92 73.76C403.1 74.12 399.47 75.25 396.04 77.14C392.6 79.03 389.42 81.23 386.49 83.73C386.64 83.59 386.74 83.42 386.77 83.22C386.8 83.02 386.89 82.82 387.04 82.62C387.33 81.88 387.21 81.06 386.7 80.16C386.18 79.26 385.43 78.42 384.44 77.64C383.45 76.86 382.36 76.21 381.18 75.7C380 75.19 378.93 74.96 377.98 75C374.32 75.35 370.85 76.41 367.57 78.16C364.29 79.92 361.22 82.01 358.37 84.43C358.45 84.36 358.48 84.26 358.48 84.13L358.36 84.14C358.79 83 358.5 81.89 357.5 80.82C356.5 79.74 355.22 78.84 353.67 78.12C352.12 77.39 350.5 76.89 348.81 76.6C347.12 76.31 345.81 76.38 344.87 76.82C344.04 79.76 343.13 82.47 342.16 84.94C341.19 87.42 340.19 89.84 339.17 92.19C338.27 94.43 337.41 96.65 336.56 98.87L335.21 100.57C333.69 102.48 332.04 104.48 330.25 106.57C328.46 108.66 326.59 110.67 324.63 112.59C322.68 114.52 320.63 116.24 318.5 117.75C316.37 119.26 314.2 120.39 311.99 121.14L311.03 121.18C310.07 121.22 309.59 120.75 309.59 119.76C309.59 118.77 309.89 117.46 310.5 115.82C311.11 114.18 311.97 112.31 313.08 110.22C314.19 108.13 315.38 105.99 316.64 103.79C317.9 101.6 319.21 99.41 320.56 97.25C321.91 95.08 323.14 93.12 324.26 91.36L328.29 84.66C328.48 83.6 328.14 82.54 327.26 81.49C326.38 80.44 325.28 79.56 323.97 78.86C322.66 78.16 321.3 77.67 319.89 77.4C318.48 77.13 317.34 77.18 316.48 77.55L315.76 77.58C314.97 79.66 313.91 82.01 312.59 84.64C311.26 87.27 309.86 90.03 308.39 92.93C307.28 95.02 306.19 97.11 305.12 99.2C304.05 101.29 303.06 103.31 302.14 105.26C301.22 107.21 300.4 109.04 299.68 110.75C298.96 112.46 298.42 113.95 298.07 115.22L298.19 115.21C297.48 117.28 297.16 119.14 297.23 120.79C297.32 122.85 298.07 124.57 299.49 125.95C300.91 127.33 303.05 127.99 305.93 127.93C307.37 127.87 308.77 127.66 310.16 127.3C311.54 126.94 312.82 126.52 314 126.03C315.18 125.54 316.23 125.01 317.17 124.44C318.1 123.87 318.88 123.36 319.5 122.93C324.3 119.47 328.46 115.83 331.97 111.98C332.01 111.94 332.04 111.9 332.08 111.86C331.25 115.21 330.79 118.56 330.71 121.93C330.82 122.59 331.49 123.25 332.71 123.92C333.94 124.59 335.24 125.15 336.62 125.58C338 126.02 339.29 126.27 340.49 126.35C341.69 126.43 342.32 126.17 342.37 125.58C342.58 121.22 343.32 116.97 344.58 112.83C345.84 108.69 347.43 104.64 349.33 100.66C351.69 98.05 353.99 95.67 356.21 93.5C358.43 91.33 360.9 89.16 363.6 87.01C367.08 84.42 369.3 83.04 370.25 82.87C370.66 83.18 370.62 84.17 370.14 85.84C369.65 87.51 368.86 89.62 367.77 92.17C365.66 97.14 363.81 101.98 362.22 106.69C360.62 111.41 359.8 116.07 359.76 120.69C359.87 121.35 360.54 122.03 361.76 122.73C362.99 123.44 364.31 124.01 365.73 124.44C367.14 124.87 368.46 125.13 369.66 125.21C370.86 125.29 371.45 125 371.42 124.34C371.53 121.3 371.92 118.3 372.6 115.34C373.27 112.38 374.07 109.56 375 106.88C376 104.2 377.1 101.72 378.28 99.42C380.49 96.82 382.74 94.45 385.05 92.31C387.36 90.17 389.86 87.99 392.56 85.76C394.8 84.08 396.42 83.06 397.4 82.69C398.38 82.32 398.89 82.46 398.92 83.12C398.96 84.04 398.76 85.1 398.34 86.31C397.91 87.51 397.41 88.79 396.83 90.13C395.51 92.95 394.36 95.51 393.38 97.79C392.4 100.07 391.55 102.17 390.83 104.08C390.11 105.99 389.55 107.78 389.14 109.44C388.73 111.11 388.52 112.76 388.51 114.41C388.5 116.13 388.84 117.59 389.54 118.82C390.23 120.04 391.15 121.03 392.3 121.77C393.45 122.51 394.75 123.05 396.2 123.38C397.65 123.71 399.17 123.85 400.77 123.78C403.48 123.66 406.16 122.84 408.81 121.31C411.46 119.78 413.92 117.98 416.19 115.9C418.22 114.05 420.06 112.13 421.73 110.16C421.17 112.86 420.85 115.5 420.78 118.08C420.89 118.74 421.56 119.4 422.78 120.07C424.01 120.74 425.31 121.3 426.69 121.73C428.07 122.17 429.36 122.42 430.56 122.5C431.76 122.58 432.39 122.32 432.44 121.73C432.49 121 432.52 120.31 432.53 119.65C432.54 118.99 432.61 118.33 432.75 117.66C434 118.86 435.72 119.84 437.92 120.6C440.11 121.36 442.89 121.64 446.24 121.43C450.63 121.18 454.83 120.11 458.83 118.22C462.83 116.34 466.45 113.94 469.69 111.03C472.93 108.12 475.73 104.86 478.1 101.23C480.47 97.6 482.25 93.92 483.45 90.18C483.88 88.91 484.2 87.61 484.42 86.28C484.64 84.95 484.73 83.73 484.69 82.61C484.63 81.21 484.37 79.87 483.91 78.57ZM470.04 87.56C469.18 89.84 468 92.18 466.51 94.58C465.01 96.98 463.3 99.38 461.36 101.77C459.43 104.16 457.4 106.27 455.28 108.11C453.16 109.95 451.03 111.44 448.88 112.58C446.73 113.73 444.74 114.27 442.9 114.22C440.58 114.19 438.95 113.37 438 111.76C437.05 110.15 436.54 108.4 436.46 106.49C436.41 105.24 436.48 104.05 436.67 102.92C438.41 98.69 440.39 94.55 442.61 90.51C444.21 88.66 446.03 86.92 448.08 85.28C450.13 83.65 452.24 82.22 454.43 81.01C456.61 79.8 458.81 78.83 461.02 78.11C463.22 77.39 465.25 77.02 467.08 77.01C468.44 77.02 469.45 77.42 470.13 78.21C470.8 79.01 471.17 80.16 471.24 81.67C471.3 83.32 470.91 85.29 470.04 87.56ZM537.42 82.92C536.92 80.5 535.88 78.63 534.31 77.32C534.1 76.28 533.76 75.23 533.28 74.2C532.8 73.17 532.08 72.24 531.13 71.42C530.18 70.6 528.97 69.93 527.51 69.4C526.05 68.87 524.32 68.55 522.32 68.43C517.36 68.31 512.59 69.31 508.01 71.41C503.43 73.52 499.35 76.23 495.78 79.54C492.21 82.86 489.39 86.5 487.32 90.48C485.25 94.46 484.3 98.26 484.45 101.87C484.51 103.19 484.76 104.56 485.22 105.99C486.76 110.34 489.46 113.64 493.31 115.88C497.16 118.12 501.52 119.17 506.39 119.03C509.18 118.91 511.89 118.35 514.53 117.35C517.16 116.35 519.66 115.01 522.03 113.32C524.39 111.64 526.57 109.72 528.56 107.55C530.54 105.39 532.24 103.09 533.66 100.66C535.07 98.23 536.15 95.74 536.88 93.21C537.61 90.67 537.93 88.19 537.82 85.75C537.8 85.22 537.76 84.73 537.7 84.27C537.6 83.83 537.52 83.37 537.42 82.92ZM529.15 92.61C527.9 95.99 526.19 99.18 524.04 102.17C521.89 105.16 519.42 107.67 516.63 109.7C513.84 111.73 510.97 112.74 508.01 112.74C505.05 112.73 502.88 111.81 501.48 109.95C500.08 108.1 499.33 105.79 499.21 103.03C499.13 101.19 499.35 99.2 499.86 97.07C500.37 94.94 501.1 92.82 502.04 90.7C502.99 88.58 504.16 86.52 505.55 84.52C506.94 82.52 508.52 80.72 510.29 79.13L510.17 79.14C512.09 77.41 514.17 76 516.4 74.92C518.63 73.84 520.54 73.2 522.13 73C523.96 72.79 525.2 73 525.87 73.63C526.53 74.26 526.93 75.04 527.05 75.95C526.41 76.04 525.75 76.27 525.04 76.63C524.81 76.77 524.32 77.04 523.58 77.43C522.84 77.82 522.1 78.27 521.36 78.76C520.62 79.25 519.95 79.79 519.33 80.38C518.71 80.97 518.38 81.52 518.32 82.05C518.34 82.58 518.37 83.17 518.4 83.83C518.43 84.49 518.52 85.14 518.66 85.8C518.81 86.45 519.03 87.02 519.33 87.5C519.63 87.98 520.02 88.28 520.51 88.39L522.42 88.31C523.04 88.07 523.31 88.24 524.06 87.6C524.83 86.95 525.24 86.49 526.01 85.77C526.78 85.05 527.24 84.54 528.17 83.51C528.84 82.76 529.42 81.1 530.13 81.07C530.46 81.32 530.65 82.1 530.71 83.42C530.93 86.16 530.4 89.23 529.15 92.61ZM593.99 81.89C593.93 81.43 593.85 80.97 593.75 80.52C593.25 78.1 592.21 76.23 590.64 74.92C590.43 73.88 590.09 72.83 589.61 71.8C589.13 70.77 588.41 69.84 587.46 69.02C586.51 68.2 585.3 67.53 583.84 67C582.38 66.47 580.65 66.15 578.65 66.03C573.69 65.91 568.92 66.91 564.34 69.01C559.76 71.12 555.68 73.83 552.11 77.14C548.54 80.46 545.72 84.1 543.65 88.08C541.58 92.06 540.63 95.86 540.78 99.47C540.84 100.79 541.09 102.16 541.55 103.59C543.09 107.94 545.79 111.24 549.64 113.48C553.49 115.72 557.85 116.77 562.72 116.63C565.51 116.51 568.22 115.95 570.86 114.95C573.49 113.95 575.99 112.61 578.36 110.92C580.72 109.24 582.9 107.32 584.89 105.15C586.87 102.99 588.57 100.69 589.99 98.26C591.4 95.83 592.48 93.34 593.21 90.81C593.94 88.27 594.26 85.79 594.15 83.35C594.1 82.84 594.05 82.35 593.99 81.89ZM585.48 90.21C584.23 93.59 582.52 96.78 580.38 99.77C578.23 102.76 575.76 105.27 572.97 107.3C570.18 109.33 567.31 110.34 564.35 110.34C561.39 110.33 559.22 109.41 557.82 107.55C556.42 105.7 555.67 103.39 555.55 100.63C555.47 98.79 555.69 96.8 556.2 94.67C556.71 92.54 557.44 90.42 558.38 88.3C559.33 86.18 560.5 84.12 561.89 82.12C563.28 80.12 564.86 78.32 566.63 76.73L566.51 76.74C568.43 75.01 570.51 73.6 572.74 72.52C574.97 71.44 576.88 70.8 578.47 70.6C580.3 70.39 581.54 70.6 582.21 71.23C582.87 71.86 583.27 72.64 583.39 73.55C582.75 73.64 582.09 73.87 581.38 74.23C581.15 74.37 580.66 74.64 579.92 75.03C579.18 75.42 578.44 75.87 577.7 76.36C576.96 76.85 576.29 77.39 575.67 77.98C575.05 78.57 574.72 79.12 574.66 79.65C574.68 80.18 574.71 80.77 574.74 81.43C574.77 82.09 574.86 82.74 575 83.4C575.15 84.05 575.37 84.62 575.67 85.1C575.97 85.58 576.36 85.88 576.85 85.99L578.76 85.91C579.22 85.71 579.7 85.9 580.4 85.2C581.12 84.48 581.58 84.09 582.35 83.37C583.12 82.65 583.84 81.61 584.66 80.74C585.35 80.01 585.75 78.7 586.47 78.67C586.8 78.92 586.99 79.7 587.05 81.02C587.26 83.76 586.73 86.83 585.48 90.21ZM557.87 126.42C579.51 125.07 590.77 117.07 598.16 115.98C605.55 114.88 610.48 118.99 602.27 125.84C594.05 132.69 577.9 137.62 551.88 138.71C525.86 139.81 348.13 148.84 321.02 151.31C293.91 153.77 275.56 157.06 275.56 158.43C275.56 159.8 284.87 163.91 309.52 163.91C334.17 163.91 343.48 161.99 343.48 163.91C343.48 165.83 339.65 168.02 333.89 168.57C328.14 169.12 291.44 169.39 271.45 166.93C251.46 164.47 253.1 153.24 272.82 147.49C292.54 141.74 357.99 135.99 444.8 132.15C531.61 128.3 540.34 127.52 557.87 126.42Z" fill="url(#paint1_linear_1_4)"/>
<path d="M38.53 0C38.53 0 667.45 0 700.31 0C733.17 0 731.53 29.17 727.43 50.12C723.33 71.07 711.82 128.17 707.71 147.07C703.6 165.97 690.46 185.68 660.88 188.15C631.3 190.62 375.59 213.21 372.71 213.62C369.83 214.03 365.73 214.24 361.62 213.83C357.51 213.42 87.83 189.8 75.09 188.16C62.35 186.52 36.06 175.43 30.31 146.26C24.56 117.09 11.01 49.29 8.95 34.92C6.89 20.55 14.29 0 38.53 0ZM637.6 166.1C664.71 163.64 679.23 142 682.24 130.22C685.25 118.44 692.92 71.61 695.66 58.47C698.4 45.32 688.81 24.51 668.27 24.51C647.73 24.51 86.32 24.51 69.89 24.51C53.46 24.51 40.86 43.95 42.77 55.73C44.69 67.51 52.08 106.39 56.19 126.93C60.3 147.47 79.19 163.35 97.54 165.54C115.89 167.73 361.54 190.19 367.02 190.19C373.32 190.2 610.49 168.56 637.6 166.1Z" fill="url(#paint2_linear_1_4)"/>
<path d="M488.35 15.47C490.769 15.47 492.73 13.509 492.73 11.09C492.73 8.67095 490.769 6.70996 488.35 6.70996C485.931 6.70996 483.97 8.67095 483.97 11.09C483.97 13.509 485.931 15.47 488.35 15.47Z" fill="white"/>
<path d="M515.21 15.47C517.629 15.47 519.59 13.509 519.59 11.09C519.59 8.67095 517.629 6.70996 515.21 6.70996C512.791 6.70996 510.83 8.67095 510.83 11.09C510.83 13.509 512.791 15.47 515.21 15.47Z" fill="white"/>
<path d="M542.57 15.47C544.989 15.47 546.95 13.509 546.95 11.09C546.95 8.67095 544.989 6.70996 542.57 6.70996C540.151 6.70996 538.19 8.67095 538.19 11.09C538.19 13.509 540.151 15.47 542.57 15.47Z" fill="white"/>
<path d="M569.43 15.47C571.849 15.47 573.81 13.509 573.81 11.09C573.81 8.67095 571.849 6.70996 569.43 6.70996C567.011 6.70996 565.05 8.67095 565.05 11.09C565.05 13.509 567.011 15.47 569.43 15.47Z" fill="white"/>
<path d="M57.56 15.47C59.979 15.47 61.94 13.509 61.94 11.09C61.94 8.67095 59.979 6.70996 57.56 6.70996C55.141 6.70996 53.18 8.67095 53.18 11.09C53.18 13.509 55.141 15.47 57.56 15.47Z" fill="white"/>
<path d="M84.43 15.47C86.849 15.47 88.81 13.509 88.81 11.09C88.81 8.67095 86.849 6.70996 84.43 6.70996C82.011 6.70996 80.05 8.67095 80.05 11.09C80.05 13.509 82.011 15.47 84.43 15.47Z" fill="white"/>
<path d="M111.79 15.47C114.209 15.47 116.17 13.509 116.17 11.09C116.17 8.67095 114.209 6.70996 111.79 6.70996C109.371 6.70996 107.41 8.67095 107.41 11.09C107.41 13.509 109.371 15.47 111.79 15.47Z" fill="white"/>
<path d="M138.65 15.47C141.069 15.47 143.03 13.509 143.03 11.09C143.03 8.67095 141.069 6.70996 138.65 6.70996C136.231 6.70996 134.27 8.67095 134.27 11.09C134.27 13.509 136.231 15.47 138.65 15.47Z" fill="white"/>
<path d="M165.74 15.47C168.159 15.47 170.12 13.509 170.12 11.09C170.12 8.67095 168.159 6.70996 165.74 6.70996C163.321 6.70996 161.36 8.67095 161.36 11.09C161.36 13.509 163.321 15.47 165.74 15.47Z" fill="white"/>
<path d="M192.6 15.47C195.019 15.47 196.98 13.509 196.98 11.09C196.98 8.67095 195.019 6.70996 192.6 6.70996C190.181 6.70996 188.22 8.67095 188.22 11.09C188.22 13.509 190.181 15.47 192.6 15.47Z" fill="white"/>
<path d="M219.96 15.47C222.379 15.47 224.34 13.509 224.34 11.09C224.34 8.67095 222.379 6.70996 219.96 6.70996C217.541 6.70996 215.58 8.67095 215.58 11.09C215.58 13.509 217.541 15.47 219.96 15.47Z" fill="white"/>
<path d="M246.83 15.47C249.249 15.47 251.21 13.509 251.21 11.09C251.21 8.67095 249.249 6.70996 246.83 6.70996C244.411 6.70996 242.45 8.67095 242.45 11.09C242.45 13.509 244.411 15.47 246.83 15.47Z" fill="white"/>
<path d="M273.09 15.47C275.509 15.47 277.47 13.509 277.47 11.09C277.47 8.67095 275.509 6.70996 273.09 6.70996C270.671 6.70996 268.71 8.67095 268.71 11.09C268.71 13.509 270.671 15.47 273.09 15.47Z" fill="white"/>
<path d="M299.95 15.47C302.369 15.47 304.33 13.509 304.33 11.09C304.33 8.67095 302.369 6.70996 299.95 6.70996C297.531 6.70996 295.57 8.67095 295.57 11.09C295.57 13.509 297.531 15.47 299.95 15.47Z" fill="white"/>
<path d="M327.32 15.47C329.739 15.47 331.7 13.509 331.7 11.09C331.7 8.67095 329.739 6.70996 327.32 6.70996C324.901 6.70996 322.94 8.67095 322.94 11.09C322.94 13.509 324.901 15.47 327.32 15.47Z" fill="white"/>
<path d="M354.18 15.47C356.599 15.47 358.56 13.509 358.56 11.09C358.56 8.67095 356.599 6.70996 354.18 6.70996C351.761 6.70996 349.8 8.67095 349.8 11.09C349.8 13.509 351.761 15.47 354.18 15.47Z" fill="white"/>
<path d="M381.27 15.47C383.689 15.47 385.65 13.509 385.65 11.09C385.65 8.67095 383.689 6.70996 381.27 6.70996C378.851 6.70996 376.89 8.67095 376.89 11.09C376.89 13.509 378.851 15.47 381.27 15.47Z" fill="white"/>
<path d="M408.13 15.47C410.549 15.47 412.51 13.509 412.51 11.09C412.51 8.67095 410.549 6.70996 408.13 6.70996C405.711 6.70996 403.75 8.67095 403.75 11.09C403.75 13.509 405.711 15.47 408.13 15.47Z" fill="white"/>
<path d="M435.49 15.47C437.909 15.47 439.87 13.509 439.87 11.09C439.87 8.67095 437.909 6.70996 435.49 6.70996C433.071 6.70996 431.11 8.67095 431.11 11.09C431.11 13.509 433.071 15.47 435.49 15.47Z" fill="white"/>
<path d="M462.35 15.47C464.769 15.47 466.73 13.509 466.73 11.09C466.73 8.67095 464.769 6.70996 462.35 6.70996C459.931 6.70996 457.97 8.67095 457.97 11.09C457.97 13.509 459.931 15.47 462.35 15.47Z" fill="white"/>
<path d="M596.52 15.47C598.939 15.47 600.9 13.509 600.9 11.09C600.9 8.67095 598.939 6.70996 596.52 6.70996C594.101 6.70996 592.14 8.67095 592.14 11.09C592.14 13.509 594.101 15.47 596.52 15.47Z" fill="white"/>
<path d="M623.38 15.47C625.799 15.47 627.76 13.509 627.76 11.09C627.76 8.67095 625.799 6.70996 623.38 6.70996C620.961 6.70996 619 8.67095 619 11.09C619 13.509 620.961 15.47 623.38 15.47Z" fill="white"/>
<path d="M650.74 15.47C653.159 15.47 655.12 13.509 655.12 11.09C655.12 8.67095 653.159 6.70996 650.74 6.70996C648.321 6.70996 646.36 8.67095 646.36 11.09C646.36 13.509 648.321 15.47 650.74 15.47Z" fill="white"/>
<path d="M677.61 15.47C680.029 15.47 681.99 13.509 681.99 11.09C681.99 8.67095 680.029 6.70996 677.61 6.70996C675.191 6.70996 673.23 8.67095 673.23 11.09C673.23 13.509 675.191 15.47 677.61 15.47Z" fill="white"/>
<path d="M384.07 205.97C386.489 205.97 388.45 204.009 388.45 201.59C388.45 199.171 386.489 197.21 384.07 197.21C381.651 197.21 379.69 199.171 379.69 201.59C379.69 204.009 381.651 205.97 384.07 205.97Z" fill="white"/>
<path d="M411.33 203.67C413.749 203.67 415.71 201.709 415.71 199.29C415.71 196.871 413.749 194.91 411.33 194.91C408.911 194.91 406.95 196.871 406.95 199.29C406.95 201.709 408.911 203.67 411.33 203.67Z" fill="white"/>
<path d="M438.1 201.4C440.519 201.4 442.48 199.439 442.48 197.02C442.48 194.601 440.519 192.64 438.1 192.64C435.681 192.64 433.72 194.601 433.72 197.02C433.72 199.439 435.681 201.4 438.1 201.4Z" fill="white"/>
<path d="M464 199.21C466.419 199.21 468.38 197.249 468.38 194.83C468.38 192.411 466.419 190.45 464 190.45C461.581 190.45 459.62 192.411 459.62 194.83C459.62 197.249 461.581 199.21 464 199.21Z" fill="white"/>
<path d="M490.77 196.95C493.189 196.95 495.15 194.989 495.15 192.57C495.15 190.151 493.189 188.19 490.77 188.19C488.351 188.19 486.39 190.151 486.39 192.57C486.39 194.989 488.351 196.95 490.77 196.95Z" fill="white"/>
<path d="M518.03 194.65C520.449 194.65 522.41 192.689 522.41 190.27C522.41 187.851 520.449 185.89 518.03 185.89C515.611 185.89 513.65 187.851 513.65 190.27C513.65 192.689 515.611 194.65 518.03 194.65Z" fill="white"/>
<path d="M544.8 192.39C547.219 192.39 549.18 190.429 549.18 188.01C549.18 185.591 547.219 183.63 544.8 183.63C542.381 183.63 540.42 185.591 540.42 188.01C540.42 190.429 542.381 192.39 544.8 192.39Z" fill="white"/>
<path d="M571.79 190.11C574.209 190.11 576.17 188.149 576.17 185.73C576.17 183.311 574.209 181.35 571.79 181.35C569.371 181.35 567.41 183.311 567.41 185.73C567.41 188.149 569.371 190.11 571.79 190.11Z" fill="white"/>
<path d="M598.56 187.84C600.979 187.84 602.94 185.879 602.94 183.46C602.94 181.041 600.979 179.08 598.56 179.08C596.141 179.08 594.18 181.041 594.18 183.46C594.18 185.879 596.141 187.84 598.56 187.84Z" fill="white"/>
<path d="M625.82 185.54C628.239 185.54 630.2 183.579 630.2 181.16C630.2 178.741 628.239 176.78 625.82 176.78C623.401 176.78 621.44 178.741 621.44 181.16C621.44 183.579 623.401 185.54 625.82 185.54Z" fill="white"/>
<path d="M652.59 183.28C655.009 183.28 656.97 181.319 656.97 178.9C656.97 176.481 655.009 174.52 652.59 174.52C650.171 174.52 648.21 176.481 648.21 178.9C648.21 181.319 650.171 183.28 652.59 183.28Z" fill="white"/>
<path d="M712.68 50.72C715.099 50.72 717.06 48.759 717.06 46.34C717.06 43.921 715.099 41.96 712.68 41.96C710.261 41.96 708.3 43.921 708.3 46.34C708.3 48.759 710.261 50.72 712.68 50.72Z" fill="white"/>
<path d="M704.85 24.2999C707.269 24.2999 709.23 22.3389 709.23 19.9199C709.23 17.5009 707.269 15.5399 704.85 15.5399C702.431 15.5399 700.47 17.5009 700.47 19.9199C700.47 22.3389 702.431 24.2999 704.85 24.2999Z" fill="white"/>
<path d="M707.5 77.0799C709.919 77.0799 711.88 75.119 711.88 72.6999C711.88 70.2809 709.919 68.3199 707.5 68.3199C705.081 68.3199 703.12 70.2809 703.12 72.6999C703.12 75.119 705.081 77.0799 707.5 77.0799Z" fill="white"/>
<path d="M702.23 103.93C704.649 103.93 706.61 101.969 706.61 99.5499C706.61 97.1309 704.649 95.1699 702.23 95.1699C699.811 95.1699 697.85 97.1309 697.85 99.5499C697.85 101.969 699.811 103.93 702.23 103.93Z" fill="white"/>
<path d="M697.05 130.29C699.469 130.29 701.43 128.329 701.43 125.91C701.43 123.491 699.469 121.53 697.05 121.53C694.631 121.53 692.67 123.491 692.67 125.91C692.67 128.329 694.631 130.29 697.05 130.29Z" fill="white"/>
<path d="M689.96 155.89C692.379 155.89 694.34 153.929 694.34 151.51C694.34 149.091 692.379 147.13 689.96 147.13C687.541 147.13 685.58 149.091 685.58 151.51C685.58 153.929 687.541 155.89 689.96 155.89Z" fill="white"/>
<path d="M674.58 173.78C676.999 173.78 678.96 171.819 678.96 169.4C678.96 166.981 676.999 165.02 674.58 165.02C672.161 165.02 670.2 166.981 670.2 169.4C670.2 171.819 672.161 173.78 674.58 173.78Z" fill="white"/>
<path d="M353.61 205.97C356.029 205.97 357.99 204.009 357.99 201.59C357.99 199.171 356.029 197.21 353.61 197.21C351.191 197.21 349.23 199.171 349.23 201.59C349.23 204.009 351.191 205.97 353.61 205.97Z" fill="white"/>
<path d="M326.34 203.67C328.759 203.67 330.72 201.709 330.72 199.29C330.72 196.871 328.759 194.91 326.34 194.91C323.921 194.91 321.96 196.871 321.96 199.29C321.96 201.709 323.921 203.67 326.34 203.67Z" fill="white"/>
<path d="M299.57 201.4C301.989 201.4 303.95 199.439 303.95 197.02C303.95 194.601 301.989 192.64 299.57 192.64C297.151 192.64 295.19 194.601 295.19 197.02C295.19 199.439 297.151 201.4 299.57 201.4Z" fill="white"/>
<path d="M273.68 199.21C276.099 199.21 278.06 197.249 278.06 194.83C278.06 192.411 276.099 190.45 273.68 190.45C271.261 190.45 269.3 192.411 269.3 194.83C269.3 197.249 271.261 199.21 273.68 199.21Z" fill="white"/>
<path d="M246.91 196.95C249.329 196.95 251.29 194.989 251.29 192.57C251.29 190.151 249.329 188.19 246.91 188.19C244.491 188.19 242.53 190.151 242.53 192.57C242.53 194.989 244.491 196.95 246.91 196.95Z" fill="white"/>
<path d="M219.64 194.65C222.059 194.65 224.02 192.689 224.02 190.27C224.02 187.851 222.059 185.89 219.64 185.89C217.221 185.89 215.26 187.851 215.26 190.27C215.26 192.689 217.221 194.65 219.64 194.65Z" fill="white"/>
<path d="M192.88 192.39C195.299 192.39 197.26 190.429 197.26 188.01C197.26 185.591 195.299 183.63 192.88 183.63C190.461 183.63 188.5 185.591 188.5 188.01C188.5 190.429 190.461 192.39 192.88 192.39Z" fill="white"/>
<path d="M165.88 190.11C168.299 190.11 170.26 188.149 170.26 185.73C170.26 183.311 168.299 181.35 165.88 181.35C163.461 181.35 161.5 183.311 161.5 185.73C161.5 188.149 163.461 190.11 165.88 190.11Z" fill="white"/>
<path d="M139.12 187.84C141.539 187.84 143.5 185.879 143.5 183.46C143.5 181.041 141.539 179.08 139.12 179.08C136.701 179.08 134.74 181.041 134.74 183.46C134.74 185.879 136.701 187.84 139.12 187.84Z" fill="white"/>
<path d="M111.85 185.54C114.269 185.54 116.23 183.579 116.23 181.16C116.23 178.741 114.269 176.78 111.85 176.78C109.431 176.78 107.47 178.741 107.47 181.16C107.47 183.579 109.431 185.54 111.85 185.54Z" fill="white"/>
<path d="M85.08 183.28C87.499 183.28 89.46 181.319 89.46 178.9C89.46 176.481 87.499 174.52 85.08 174.52C82.661 174.52 80.7 176.481 80.7 178.9C80.7 181.319 82.661 183.28 85.08 183.28Z" fill="white"/>
<path d="M25 50.72C27.419 50.72 29.38 48.759 29.38 46.34C29.38 43.921 27.419 41.96 25 41.96C22.581 41.96 20.62 43.921 20.62 46.34C20.62 48.759 22.581 50.72 25 50.72Z" fill="white"/>
<path d="M32.83 24.2999C35.249 24.2999 37.21 22.3389 37.21 19.9199C37.21 17.5009 35.249 15.5399 32.83 15.5399C30.411 15.5399 28.45 17.5009 28.45 19.9199C28.45 22.3389 30.411 24.2999 32.83 24.2999Z" fill="white"/>
<path d="M30.17 77.0799C32.589 77.0799 34.55 75.119 34.55 72.6999C34.55 70.2809 32.589 68.3199 30.17 68.3199C27.751 68.3199 25.79 70.2809 25.79 72.6999C25.79 75.119 27.751 77.0799 30.17 77.0799Z" fill="white"/>
<path d="M35.45 103.93C37.869 103.93 39.83 101.969 39.83 99.5499C39.83 97.1309 37.869 95.1699 35.45 95.1699C33.031 95.1699 31.07 97.1309 31.07 99.5499C31.07 101.969 33.031 103.93 35.45 103.93Z" fill="white"/>
<path d="M40.62 130.29C43.039 130.29 45 128.329 45 125.91C45 123.491 43.039 121.53 40.62 121.53C38.201 121.53 36.24 123.491 36.24 125.91C36.24 128.329 38.201 130.29 40.62 130.29Z" fill="white"/>
<path d="M47.72 155.89C50.139 155.89 52.1 153.929 52.1 151.51C52.1 149.091 50.139 147.13 47.72 147.13C45.301 147.13 43.34 149.091 43.34 151.51C43.34 153.929 45.301 155.89 47.72 155.89Z" fill="white"/>
<path d="M63.09 173.78C65.509 173.78 67.47 171.819 67.47 169.4C67.47 166.981 65.509 165.02 63.09 165.02C60.671 165.02 58.71 166.981 58.71 169.4C58.71 171.819 60.671 173.78 63.09 173.78Z" fill="white"/>
</g>
<defs>
<linearGradient id="paint0_linear_1_4" x1="5.335e-06" y1="114.825" x2="720.968" y2="114.825" gradientUnits="userSpaceOnUse">
<stop offset="0.1378" stop-color="#C4161C"/>
<stop offset="0.8595" stop-color="#002E6E"/>
</linearGradient>
<linearGradient id="paint1_linear_1_4" x1="124.232" y1="105.233" x2="606.533" y2="105.233" gradientUnits="userSpaceOnUse">
<stop offset="0.1749" stop-color="#C4161C"/>
<stop offset="0.6962" stop-color="#002E6E"/>
</linearGradient>
<linearGradient id="paint2_linear_1_4" x1="729.595" y1="107.02" x2="8.62657" y2="107.02" gradientUnits="userSpaceOnUse">
<stop offset="0.1398" stop-color="#C4161C"/>
<stop offset="0.8697" stop-color="#002E6E"/>
</linearGradient>
<clipPath id="clip0_1_4">
<rect width="729.6" height="221.85" fill="white"/>
</clipPath>
</defs>
</svg>
