<svg width="1260" height="530" viewBox="0 0 1260 530" fill="none" xmlns="http://www.w3.org/2000/svg">
<path d="M311.973 112.728C312.527 111.7 311.497 110.504 310.391 110.88C301.62 113.859 276.724 121.465 260.984 117.741C246.556 114.328 242.65 99.6499 241.597 92.3871C241.418 91.1547 239.522 90.6095 238.729 91.5697C233.637 97.7365 221.082 110.154 204.563 107.014C188.435 103.947 175.816 87.433 170.363 79.0886C169.625 77.959 167.664 78.5669 167.738 79.9142L171.199 143.255C171.331 145.677 173.494 147.476 175.9 147.163L179.317 146.72C213.613 142.27 248.417 149.291 278.306 166.689V166.689C280.22 167.803 282.675 167.11 283.725 165.161L311.973 112.728Z" fill="#FF983E"/>
<path d="M314.255 100.346C314.289 103.332 314.317 105.91 314.044 106.95C313.984 107.179 314.072 107.42 314.266 107.555C314.45 107.671 314.717 107.689 314.91 107.552C315.748 106.962 318.032 106.081 320.677 105.059C326.732 102.721 335.026 99.5197 337.692 95.5864C341.623 89.7845 340.116 81.8756 334.332 77.9557C328.547 74.0358 320.643 75.567 316.711 81.3688C314.089 85.2386 314.185 93.9706 314.255 100.346Z" fill="#FF983E"/>
<path d="M238.149 76.8647C239.649 80.2342 240.944 83.1446 241.143 84.4579C241.187 84.747 241.405 84.9768 241.69 85.0348C241.957 85.0771 242.267 84.966 242.419 84.717C243.081 83.6367 245.239 81.5185 247.738 79.0639C253.46 73.4464 261.297 65.7524 262.394 59.9857C264.011 51.4795 258.429 43.248 249.95 41.6358C241.472 40.0237 233.259 45.6323 231.641 54.1385C230.562 59.812 234.948 69.668 238.149 76.8647Z" fill="#FF983E"/>
<path d="M169.429 69.8304C168.576 71.924 167.839 73.7323 167.743 74.5408C167.721 74.7188 167.592 74.8638 167.418 74.905C167.256 74.936 167.064 74.8741 166.965 74.7245C166.539 74.0756 165.175 72.8202 163.596 71.3654C159.98 68.0359 155.028 63.4758 154.243 59.9644C153.086 54.785 156.346 49.6329 161.51 48.4793C166.674 47.3257 171.816 50.601 172.973 55.7804C173.745 59.235 171.25 65.3589 169.429 69.8304Z" fill="#FF983E"/>
<circle cx="159.867" cy="44.4224" r="1.6409" transform="rotate(10.7656 159.867 44.4224)" fill="#FF983E"/>
<path d="M813.632 180.043C813.632 174.52 818.109 170.043 823.632 170.043H826.251C828.333 170.043 830.363 170.693 832.058 171.902L906.705 225.148C910.015 227.508 914.609 225.142 914.609 221.077V190.043C914.609 178.997 923.563 170.043 934.609 170.043H959.589C965.112 170.043 969.589 174.52 969.589 180.043V316C969.589 321.523 965.112 326 959.589 326H951.628C949.649 326 947.715 325.413 946.07 324.313L876.196 277.589C872.874 275.367 868.417 277.748 868.417 281.745V306C868.417 317.046 859.463 326 848.417 326H823.632C818.109 326 813.632 321.523 813.632 316V180.043Z" fill="url(#paint0_linear_150_182)"/>
<path d="M813.632 180.043C813.632 174.52 818.109 170.043 823.632 170.043H826.251C828.333 170.043 830.363 170.693 832.058 171.902L906.705 225.148C910.015 227.508 914.609 225.142 914.609 221.077V190.043C914.609 178.997 923.563 170.043 934.609 170.043H959.589C965.112 170.043 969.589 174.52 969.589 180.043V316C969.589 321.523 965.112 326 959.589 326H951.628C949.649 326 947.715 325.413 946.07 324.313L876.196 277.589C872.874 275.367 868.417 277.748 868.417 281.745V306C868.417 317.046 859.463 326 848.417 326H823.632C818.109 326 813.632 321.523 813.632 316V180.043Z" fill="#FFD579"/>
<path d="M676.569 180.043C676.569 174.52 681.047 170.043 686.569 170.043H781.485C785.62 170.043 788.972 173.395 788.972 177.53V189.135C788.972 203.4 777.407 214.965 763.142 214.965H743.708C740.175 214.965 737.312 217.829 737.312 221.361V221.361C737.312 224.894 740.175 227.758 743.708 227.758H769.636C780.207 227.758 788.776 236.327 788.776 246.898V246.898C788.776 257.47 780.207 266.039 769.636 266.039H744.685C740.613 266.039 737.312 269.34 737.312 273.412V273.412C737.312 277.484 740.613 280.785 744.685 280.785H764.851C780.06 280.785 792.39 293.115 792.39 308.324V318.464C792.39 322.626 789.016 326 784.854 326H686.569C681.047 326 676.569 321.523 676.569 316V180.043Z" fill="url(#paint1_linear_150_182)"/>
<path d="M676.569 180.043C676.569 174.52 681.047 170.043 686.569 170.043H781.485C785.62 170.043 788.972 173.395 788.972 177.53V189.135C788.972 203.4 777.407 214.965 763.142 214.965H743.708C740.175 214.965 737.312 217.829 737.312 221.361V221.361C737.312 224.894 740.175 227.758 743.708 227.758H769.636C780.207 227.758 788.776 236.327 788.776 246.898V246.898C788.776 257.47 780.207 266.039 769.636 266.039H744.685C740.613 266.039 737.312 269.34 737.312 273.412V273.412C737.312 277.484 740.613 280.785 744.685 280.785H764.851C780.06 280.785 792.39 293.115 792.39 308.324V318.464C792.39 322.626 789.016 326 784.854 326H686.569C681.047 326 676.569 321.523 676.569 316V180.043Z" fill="#FFD579"/>
<path d="M539.987 180.043C539.987 174.52 544.465 170.043 549.987 170.043H644.903C649.038 170.043 652.39 173.395 652.39 177.53V189.135C652.39 203.4 640.825 214.965 626.56 214.965H607.126C603.593 214.965 600.73 217.829 600.73 221.361V221.361C600.73 224.894 603.593 227.758 607.126 227.758H633.054C643.625 227.758 652.194 236.327 652.194 246.898V246.898C652.194 257.47 643.625 266.039 633.054 266.039H608.103C604.031 266.039 600.73 269.34 600.73 273.412V273.412C600.73 277.484 604.031 280.785 608.103 280.785H628.269C643.478 280.785 655.808 293.115 655.808 308.324V318.464C655.808 322.626 652.434 326 648.272 326H549.987C544.465 326 539.987 321.523 539.987 316V180.043Z" fill="url(#paint2_linear_150_182)"/>
<path d="M539.987 180.043C539.987 174.52 544.465 170.043 549.987 170.043H644.903C649.038 170.043 652.39 173.395 652.39 177.53V189.135C652.39 203.4 640.825 214.965 626.56 214.965H607.126C603.593 214.965 600.73 217.829 600.73 221.361V221.361C600.73 224.894 603.593 227.758 607.126 227.758H633.054C643.625 227.758 652.194 236.327 652.194 246.898V246.898C652.194 257.47 643.625 266.039 633.054 266.039H608.103C604.031 266.039 600.73 269.34 600.73 273.412V273.412C600.73 277.484 604.031 280.785 608.103 280.785H628.269C643.478 280.785 655.808 293.115 655.808 308.324V318.464C655.808 322.626 652.434 326 648.272 326H549.987C544.465 326 539.987 321.523 539.987 316V180.043Z" fill="#FFD579"/>
<path d="M369.339 180.043C369.339 174.52 373.816 170.043 379.339 170.043H405.96C419.767 170.043 430.96 181.236 430.96 195.043V262.035C430.96 267.569 432.295 272.224 434.964 276C437.633 279.711 441.963 281.566 447.952 281.566C453.942 281.566 458.271 279.646 460.941 275.805C463.61 271.898 464.944 267.178 464.944 261.645V195.043C464.944 181.236 476.137 170.043 489.944 170.043H508.948C514.471 170.043 518.948 174.52 518.948 180.043V263.793C518.948 286.189 512.763 302.79 500.394 313.598C488.089 324.405 470.283 329.809 446.976 329.809C421.585 329.809 402.282 324.405 389.066 313.598C375.915 302.79 369.339 286.189 369.339 263.793V180.043Z" fill="url(#paint3_linear_150_182)"/>
<path d="M369.339 180.043C369.339 174.52 373.816 170.043 379.339 170.043H405.96C419.767 170.043 430.96 181.236 430.96 195.043V262.035C430.96 267.569 432.295 272.224 434.964 276C437.633 279.711 441.963 281.566 447.952 281.566C453.942 281.566 458.271 279.646 460.941 275.805C463.61 271.898 464.944 267.178 464.944 261.645V195.043C464.944 181.236 476.137 170.043 489.944 170.043H508.948C514.471 170.043 518.948 174.52 518.948 180.043V263.793C518.948 286.189 512.763 302.79 500.394 313.598C488.089 324.405 470.283 329.809 446.976 329.809C421.585 329.809 402.282 324.405 389.066 313.598C375.915 302.79 369.339 286.189 369.339 263.793V180.043Z" fill="#FFD579"/>
<path d="M191.127 461.049C170.765 461.049 151.005 457.494 131.847 450.386C112.811 443.156 95.7014 432.855 80.5201 419.481C65.3387 406.107 53.2901 390.082 44.374 371.406C35.458 352.611 31 331.646 31 308.512C31 285.861 35.1568 265.258 43.4704 246.703C51.9045 228.148 63.4712 212.183 78.1706 198.809C92.9904 185.435 110.039 175.194 129.317 168.085C148.716 160.856 169.319 157.241 191.127 157.241C214.14 157.241 235.526 160.735 255.286 167.724C275.166 174.591 292.517 184.652 307.336 197.906C322.277 211.039 333.904 227.063 342.217 245.98C350.651 264.776 354.868 286.102 354.868 309.958C354.868 321.645 353.664 332.79 351.254 343.393C348.965 353.876 345.651 363.756 341.314 373.033C353.681 377.088 364.172 379.437 372.787 380.08C375.412 380.276 377.571 382.304 377.614 384.936C377.63 385.93 377.64 387.083 377.64 388.395C377.761 393.697 377.821 400.323 377.821 408.275C377.942 416.107 378.002 423.999 378.002 431.951C378.122 439.903 378.183 446.59 378.183 452.012C378.183 453.375 378.183 454.563 378.183 455.575C378.183 458.087 376.32 460.218 373.821 460.459C369.732 460.852 365.644 461.049 361.555 461.049C347.82 461.049 334.506 458.759 321.614 454.181C308.843 449.602 296.432 443.458 284.384 435.746C256.792 452.615 225.707 461.049 191.127 461.049ZM211.911 244.534C205.405 244.534 198.416 247.606 190.946 253.751C183.597 259.775 176.669 267.607 170.162 277.246C163.776 286.765 158.535 296.885 154.439 307.609C150.342 318.212 148.294 328.031 148.294 337.068C148.294 345.743 150.583 352.912 155.162 358.575C159.861 364.237 167.692 367.069 178.657 367.069C181.91 367.069 185.283 366.165 188.777 364.358C192.392 362.551 196.007 360.141 199.621 357.129C195.163 352.068 190.765 346.948 186.428 341.767C184.496 339.459 182.565 337.152 180.633 334.845C176.355 329.736 175.961 322.417 179.665 316.878L187.591 305.025C190.648 300.455 196.818 299.213 201.435 302.197C204.413 304.121 207.423 306.046 210.465 307.97C216.369 311.705 222.273 315.38 228.177 318.995C232.032 311.284 235.165 303.512 237.575 295.681C239.984 287.849 241.189 280.559 241.189 273.812C241.189 265.378 238.96 258.39 234.502 252.847C230.044 247.305 222.514 244.534 211.911 244.534Z" fill="url(#paint4_linear_150_182)"/>
<path d="M191.127 461.049C170.765 461.049 151.005 457.494 131.847 450.386C112.811 443.156 95.7014 432.855 80.5201 419.481C65.3387 406.107 53.2901 390.082 44.374 371.406C35.458 352.611 31 331.646 31 308.512C31 285.861 35.1568 265.258 43.4704 246.703C51.9045 228.148 63.4712 212.183 78.1706 198.809C92.9904 185.435 110.039 175.194 129.317 168.085C148.716 160.856 169.319 157.241 191.127 157.241C214.14 157.241 235.526 160.735 255.286 167.724C275.166 174.591 292.517 184.652 307.336 197.906C322.277 211.039 333.904 227.063 342.217 245.98C350.651 264.776 354.868 286.102 354.868 309.958C354.868 321.645 353.664 332.79 351.254 343.393C348.965 353.876 345.651 363.756 341.314 373.033C353.681 377.088 364.172 379.437 372.787 380.08C375.412 380.276 377.571 382.304 377.614 384.936C377.63 385.93 377.64 387.083 377.64 388.395C377.761 393.697 377.821 400.323 377.821 408.275C377.942 416.107 378.002 423.999 378.002 431.951C378.122 439.903 378.183 446.59 378.183 452.012C378.183 453.375 378.183 454.563 378.183 455.575C378.183 458.087 376.32 460.218 373.821 460.459C369.732 460.852 365.644 461.049 361.555 461.049C347.82 461.049 334.506 458.759 321.614 454.181C308.843 449.602 296.432 443.458 284.384 435.746C256.792 452.615 225.707 461.049 191.127 461.049ZM211.911 244.534C205.405 244.534 198.416 247.606 190.946 253.751C183.597 259.775 176.669 267.607 170.162 277.246C163.776 286.765 158.535 296.885 154.439 307.609C150.342 318.212 148.294 328.031 148.294 337.068C148.294 345.743 150.583 352.912 155.162 358.575C159.861 364.237 167.692 367.069 178.657 367.069C181.91 367.069 185.283 366.165 188.777 364.358C192.392 362.551 196.007 360.141 199.621 357.129C195.163 352.068 190.765 346.948 186.428 341.767C184.496 339.459 182.565 337.152 180.633 334.845C176.355 329.736 175.961 322.417 179.665 316.878L187.591 305.025C190.648 300.455 196.818 299.213 201.435 302.197C204.413 304.121 207.423 306.046 210.465 307.97C216.369 311.705 222.273 315.38 228.177 318.995C232.032 311.284 235.165 303.512 237.575 295.681C239.984 287.849 241.189 280.559 241.189 273.812C241.189 265.378 238.96 258.39 234.502 252.847C230.044 247.305 222.514 244.534 211.911 244.534Z" fill="#FFD579"/>
<path d="M1016.89 386.918C1016.41 385.151 1017.73 383.4 1019.56 383.408C1021.92 383.418 1023.87 383.506 1028.07 383.673C1049 384.504 1059.61 384.78 1075.64 383.666C1084.15 382.938 1091.21 381.743 1096.82 380.083C1101.65 378.65 1105.4 376.764 1108.05 374.423C1110.7 372.083 1111.46 368.99 1110.32 365.144C1109.08 360.968 1105.76 357.827 1100.36 355.723C1094.95 353.619 1088.25 351.779 1080.25 350.204C1072.37 348.596 1063.84 346.64 1054.67 344.336C1045.61 341.999 1036.65 338.615 1027.81 334.182C1019.08 329.717 1011.18 323.63 1004.11 315.921C997.012 308.102 991.591 297.874 987.846 285.236C983.256 269.741 982.623 255.703 985.948 243.122C989.241 230.432 995.367 219.233 1004.33 209.526C1013.36 199.676 1024.25 191.249 1037 184.244C1049.86 177.207 1063.49 171.556 1077.88 167.291C1090.08 163.677 1101.81 160.918 1113.09 159.013C1124.36 157.108 1133.95 155.818 1141.88 155.143C1144.85 154.882 1147.41 154.667 1149.57 154.497C1154.05 154.145 1158.04 157.007 1159.31 161.314L1170.78 200.038C1175.31 215.298 1164.59 230.771 1148.79 232.697C1143.14 233.388 1137.48 234.163 1131.85 235.042C1124.3 236.202 1117.78 237.595 1112.28 239.223C1107.23 240.721 1103.7 242.724 1101.69 245.231C1099.68 247.738 1099.04 250.2 1099.76 252.618C1100.34 254.596 1102.09 256.468 1105.01 258.235C1107.89 259.892 1111.06 260.923 1114.53 261.33C1127.57 262.967 1139.98 264.909 1151.76 267.156C1163.54 269.402 1174.36 272.832 1184.21 277.443C1194.07 282.055 1202.67 288.71 1210.03 297.408C1217.47 305.964 1223.32 317.439 1227.59 331.836C1232.66 348.979 1232.75 365.211 1227.85 380.531C1223.05 395.818 1213.56 409.388 1199.38 421.24C1185.31 433.059 1166.85 442.355 1143.99 449.128C1124.32 454.956 1107.83 458.824 1094.53 460.733C1063.74 465.152 1015.56 466.269 994.122 464.677C991.289 464.467 990.207 461.132 992.242 459.151L998.746 452.822C1016.28 435.759 1023.22 410.55 1016.89 386.918V386.918Z" fill="url(#paint5_linear_150_182)"/>
<path d="M1016.89 386.918C1016.41 385.151 1017.73 383.4 1019.56 383.408C1021.92 383.418 1023.87 383.506 1028.07 383.673C1049 384.504 1059.61 384.78 1075.64 383.666C1084.15 382.938 1091.21 381.743 1096.82 380.083C1101.65 378.65 1105.4 376.764 1108.05 374.423C1110.7 372.083 1111.46 368.99 1110.32 365.144C1109.08 360.968 1105.76 357.827 1100.36 355.723C1094.95 353.619 1088.25 351.779 1080.25 350.204C1072.37 348.596 1063.84 346.64 1054.67 344.336C1045.61 341.999 1036.65 338.615 1027.81 334.182C1019.08 329.717 1011.18 323.63 1004.11 315.921C997.012 308.102 991.591 297.874 987.846 285.236C983.256 269.741 982.623 255.703 985.948 243.122C989.241 230.432 995.367 219.233 1004.33 209.526C1013.36 199.676 1024.25 191.249 1037 184.244C1049.86 177.207 1063.49 171.556 1077.88 167.291C1090.08 163.677 1101.81 160.918 1113.09 159.013C1124.36 157.108 1133.95 155.818 1141.88 155.143C1144.85 154.882 1147.41 154.667 1149.57 154.497C1154.05 154.145 1158.04 157.007 1159.31 161.314L1170.78 200.038C1175.31 215.298 1164.59 230.771 1148.79 232.697C1143.14 233.388 1137.48 234.163 1131.85 235.042C1124.3 236.202 1117.78 237.595 1112.28 239.223C1107.23 240.721 1103.7 242.724 1101.69 245.231C1099.68 247.738 1099.04 250.2 1099.76 252.618C1100.34 254.596 1102.09 256.468 1105.01 258.235C1107.89 259.892 1111.06 260.923 1114.53 261.33C1127.57 262.967 1139.98 264.909 1151.76 267.156C1163.54 269.402 1174.36 272.832 1184.21 277.443C1194.07 282.055 1202.67 288.71 1210.03 297.408C1217.47 305.964 1223.32 317.439 1227.59 331.836C1232.66 348.979 1232.75 365.211 1227.85 380.531C1223.05 395.818 1213.56 409.388 1199.38 421.24C1185.31 433.059 1166.85 442.355 1143.99 449.128C1124.32 454.956 1107.83 458.824 1094.53 460.733C1063.74 465.152 1015.56 466.269 994.122 464.677C991.289 464.467 990.207 461.132 992.242 459.151L998.746 452.822C1016.28 435.759 1023.22 410.55 1016.89 386.918V386.918Z" fill="#FFD579"/>
<path d="M935.936 465.933C927.464 465.933 919.242 464.454 911.272 461.496C903.351 458.488 896.207 454.202 889.841 448.638C883.525 443.073 878.512 436.406 874.802 428.636C871.092 420.815 869.237 412.093 869.237 402.468C869.237 393.043 870.967 384.471 874.426 376.751C877.935 369.031 882.773 362.389 888.939 356.824C895.105 351.26 902.198 346.999 910.219 344.041C918.29 341.033 926.862 339.529 935.936 339.529C945.46 339.529 954.333 340.983 962.555 343.891C970.826 346.748 978.045 350.934 984.211 356.448C990.427 361.912 995.265 368.58 998.724 376.45C1002.23 384.271 1003.99 393.144 1003.99 403.069C1003.99 412.694 1002.16 421.392 998.498 429.162C994.839 436.882 989.826 443.474 983.459 448.938C977.093 454.403 969.824 458.614 961.652 461.571C953.531 464.479 944.959 465.933 935.936 465.933ZM930.672 426.831C933.329 426.831 936.161 425.553 939.169 422.996C942.177 420.389 945.009 417.081 947.666 413.07C950.323 409.06 952.479 404.824 954.133 400.362C955.837 395.901 956.69 391.79 956.69 388.03C956.69 384.521 955.762 381.614 953.907 379.308C952.053 377.002 948.919 375.849 944.508 375.849C941.801 375.849 938.893 377.127 935.785 379.684C932.727 382.19 929.845 385.449 927.138 389.459C924.481 393.419 922.3 397.63 920.596 402.092C918.891 406.503 918.039 410.589 918.039 414.349C918.039 417.958 918.992 420.941 920.897 423.297C922.852 425.653 926.11 426.831 930.672 426.831Z" fill="#FF983E"/>
<path d="M855.702 461.496C855.702 461.496 854.274 461.722 851.416 462.173C848.609 462.624 845.025 463.125 840.663 463.677C836.302 464.278 831.74 464.805 826.978 465.256C822.215 465.707 817.879 465.933 813.969 465.933C803.241 465.933 793.29 464.454 784.116 461.496C774.993 458.538 767.022 454.277 760.204 448.713C753.437 443.148 748.173 436.456 744.413 428.636C740.653 420.815 738.774 412.043 738.774 402.317C738.774 392.592 740.804 383.869 744.864 376.149C748.925 368.379 754.615 361.787 761.934 356.373C769.253 350.909 777.85 346.748 787.726 343.891C797.651 340.983 808.455 339.529 820.135 339.529C826.752 339.529 832.241 339.905 836.603 340.657C840.964 341.359 844.222 342.086 846.378 342.838C848.584 343.59 849.737 343.966 849.837 343.966V380.285C842.468 378.029 835.65 376.901 829.384 376.901C821.363 376.901 814.696 378.405 809.382 381.413C804.118 384.371 800.183 388.131 797.576 392.692C794.97 397.204 793.666 401.791 793.666 406.453C793.666 411.867 795.145 416.304 798.103 419.763C801.11 423.222 805.221 424.951 810.435 424.951C811.588 424.951 812.741 424.876 813.894 424.726C815.047 424.525 816.049 424.249 816.901 423.898C817.002 422.044 817.052 419.662 817.052 416.755C817.052 413.797 817.052 410.163 817.052 405.852C826.677 405.852 834.121 405.852 839.385 405.852C844.699 405.801 848.509 405.776 850.815 405.776C853.121 405.776 854.499 405.776 854.95 405.776C855.452 405.726 855.702 405.701 855.702 405.701V461.496Z" fill="#FF983E"/>
<path d="M604.625 342.913H616.807L682.377 389.685V342.913H724.712V463H708.545L646.81 421.718V463H604.625V342.913Z" fill="#FF983E"/>
<path d="M586.277 463H539.506V342.913H586.277V463Z" fill="#FF983E"/>
<path d="M397.236 342.913C397.236 342.913 398.64 342.863 401.447 342.763C404.255 342.612 407.939 342.437 412.501 342.236C417.063 342.036 422.026 341.86 427.39 341.71C432.754 341.509 438.042 341.359 443.256 341.259C448.47 341.108 453.056 341.033 457.017 341.033C471.905 341.033 483.661 342.186 492.283 344.492C500.956 346.748 507.147 349.981 510.857 354.192C514.566 358.353 516.421 363.316 516.421 369.081C516.421 374.595 514.967 379.232 512.06 382.992C509.202 386.702 504.816 389.91 498.901 392.617C503.061 394.021 507.047 396.026 510.857 398.633C514.666 401.24 517.8 404.874 520.256 409.536C522.712 414.148 523.941 420.264 523.941 427.884C523.941 434.902 522.487 440.692 519.579 445.254C516.722 449.816 512.887 453.425 508.074 456.082C503.262 458.689 497.898 460.619 491.983 461.872C486.067 463.075 480.052 463.852 473.936 464.203C467.82 464.554 462.055 464.729 456.641 464.729C454.886 464.729 452.004 464.679 447.993 464.579C444.033 464.479 439.521 464.354 434.458 464.203C429.445 464.053 424.432 463.877 419.419 463.677C414.406 463.476 409.894 463.276 405.884 463.075C401.924 462.925 399.041 462.799 397.236 462.699V342.913ZM444.234 397.881C448.495 396.227 452.58 394.472 456.49 392.617C460.451 390.712 463.684 388.532 466.191 386.075C468.697 383.619 469.95 380.711 469.95 377.353C469.95 375.147 469.098 373.518 467.394 372.465C465.739 371.412 464.06 370.886 462.356 370.886C460.651 370.886 458.771 371.262 456.716 372.014C454.661 372.715 452.706 373.543 450.851 374.495C448.996 375.448 447.442 376.3 446.189 377.052C444.985 377.804 444.334 378.23 444.234 378.33V397.881ZM473.936 416.304C473.936 413.998 473.209 412.368 471.755 411.416C470.351 410.464 468.597 409.987 466.491 409.987C464.235 409.987 461.704 410.564 458.897 411.717C456.089 412.87 453.382 414.173 450.776 415.627C448.169 417.081 445.988 418.234 444.234 419.086V438.035L448.144 436.531C453.357 434.576 457.894 432.746 461.754 431.042C465.614 429.287 468.597 427.282 470.702 425.026C472.858 422.72 473.936 419.813 473.936 416.304Z" fill="#FF983E"/>
<path d="M293.713 129.113C294.506 128.189 295.883 129.156 295.27 130.208L281.632 153.608C280.346 155.814 277.605 156.697 275.273 155.656L260.978 149.27C260.013 148.839 260.289 147.344 261.341 147.242C277.906 145.625 285.437 138.749 293.713 129.113Z" fill="#FFD579"/>
<path d="M986.5 152.5L985 159.5L989 178L1001.5 168.5L1004.5 165L1013.5 155.5L1017.5 149.5L1020.5 145L1009.5 129.5L1003.5 131L996 136L991 142L986.5 152.5Z" fill="#F9BB34"/>
<path fill-rule="evenodd" clip-rule="evenodd" d="M1008.16 181.416C1008.35 179.041 1010.04 178.723 1010.68 176.947C1011.78 173.928 1010.21 170.44 1011.46 167.815L1016.51 160.82C1017.73 157.83 1016.94 153.631 1018.07 150.911C1019.76 146.817 1023.54 145.726 1026.23 142.751L1026.03 142.362C1025.51 141.612 1024.56 141.204 1023.51 141.002L1020.59 145.277L1020.2 144.888C1014.92 142.31 1012.15 134.897 1009.32 129.733C997.183 129.651 982.891 122.462 975.127 117.298C972.414 115.495 967.017 112.472 968.132 107.195C968.886 103.626 971.421 102.537 973.767 100.589L972.018 98.84C970.225 95.2222 967.089 92.9548 966.189 88.1537C963.972 76.3172 981.859 78.3554 988.339 81.1591C1000 86.2049 1009.43 96.252 1016.9 105.64C1019.5 108.908 1023.57 112.128 1025.06 116.327C1011.46 106.602 1002.73 91.1148 986.396 84.2678C979.088 81.2057 965.587 81.6351 972.018 92.6225C973.168 94.5888 973.936 96.557 975.71 97.8685C981.77 92.3175 992.401 92.1854 996.305 100.006C991.428 98.943 983.707 94.684 979.401 99.2286C999.145 98.9255 1010.1 106.604 1021.17 114.967C1024.75 117.667 1027.9 121.732 1032.06 123.71C1030.18 121.017 1027.21 118.182 1026.61 114.384H1027C1030.76 110.647 1039.23 111.794 1044.68 112.829V113.024L1044.3 113.218L1040.8 116.521C1034.87 125.814 1045.71 134.995 1052.26 136.922V137.116C1050.19 137.077 1044.73 135.422 1044.3 135.95L1042.16 138.088C1044.52 141.911 1048.75 140.833 1052.46 143.334C1055.91 145.663 1057.35 156.383 1053.04 158.877C1052.28 158.683 1052.46 158.802 1052.07 158.295V154.603L1049.74 149.745L1049.54 147.025L1043.32 144.5C1041.48 143.353 1040.44 141.562 1038.86 140.225H1038.66L1037.11 141.002C1038.27 145.502 1043.12 145.928 1045.27 149.163C1048.61 154.201 1046.74 161.848 1043.52 164.901L1042.16 164.706C1041.78 162.961 1043.02 161.761 1042.55 159.655C1042.29 158.52 1041.16 151.539 1040.8 150.911C1038.1 149.728 1034.92 146.104 1033.8 143.334H1029.92C1031.13 147.604 1032.25 152.102 1033.03 155.963L1032.06 165.095L1033.8 169.369C1034.5 172.795 1032.58 175.979 1030.31 176.558L1029.72 175.975C1030.57 170.819 1027.49 169.911 1026.61 166.066C1025.8 162.505 1027.93 159.69 1028.36 157.129L1025.84 144.888L1024.48 146.054C1023.52 148.504 1022.32 150.785 1021.76 154.02L1021.17 163.152L1016.9 170.341L1016.71 174.421C1015.86 178.27 1012.83 181.381 1008.16 181.416Z" fill="#FF983E"/>
<path fill-rule="evenodd" clip-rule="evenodd" d="M1059.65 99.0342L1061.01 99.2285C1061.89 99.654 1062.11 100.109 1062.17 101.366C1060.68 103.171 1058.55 103.128 1056.34 104.28C1053.14 105.955 1049.89 112.064 1049.54 115.744L1052.84 117.104C1053.74 112.462 1060.89 102.838 1066.83 105.057L1068 106.029C1067.91 107.195 1067.93 107.873 1067.22 108.36L1062.56 109.332C1059.65 110.371 1054.79 115.526 1055.37 119.047L1058.09 125.458C1059.39 129.696 1058.62 134.482 1058.29 138.865C1052.21 137.59 1045.27 131.462 1043.13 126.041C1041.19 121.114 1043.21 116.564 1047.6 115.549C1047.53 105.102 1053.16 102.976 1059.65 99.0342Z" fill="#FF983E"/>
<path fill-rule="evenodd" clip-rule="evenodd" d="M982.704 102.727C979.298 103.96 975.494 103.426 973.572 106.03C969.929 110.965 979.799 117.266 983.481 117.882C991.243 106.729 1006.02 116.176 1014.76 119.825C1017.96 121.161 1022.9 122.166 1025.25 124.488C1017.17 124.256 999.348 114.303 996.111 123.516C1005.03 125.859 1019.11 127.55 1030.31 125.459L1029.92 124.876L1019.62 117.299C1009.78 110.314 999.046 102.903 982.704 102.727Z" fill="#FF983E"/>
<path fill-rule="evenodd" clip-rule="evenodd" d="M992.613 115.938C990.157 117.184 988.615 117.751 986.784 119.436L986.979 119.824L992.419 121.961C994.241 119.117 996.48 118.451 999.219 116.521C997.346 116.086 995.153 115.925 992.613 115.938Z" fill="#FF983E"/>
<path fill-rule="evenodd" clip-rule="evenodd" d="M1049.15 120.019C1046.35 122.62 1048.46 128.404 1051.1 129.733L1051.68 129.539L1052.26 129.15C1052.18 126.957 1051.01 126.116 1050.71 124.293C1050.24 121.53 1052.34 122.323 1050.9 120.213L1050.51 120.019H1049.15Z" fill="white"/>
<path fill-rule="evenodd" clip-rule="evenodd" d="M1025.64 128.179L1012.63 129.539C1016.38 129.63 1019.26 131.229 1021.56 132.842C1022.69 131.443 1023.26 128.855 1025.25 128.956C1026.28 132.82 1036.37 141.265 1040.22 134.979C1035.27 135.737 1029.76 132.138 1028.95 128.179H1025.64Z" fill="white"/>
<path fill-rule="evenodd" clip-rule="evenodd" d="M1003.11 131.094H1003.69C1004.68 137.465 1009.16 143.348 1013.4 146.637L1017.87 149.552L1013.4 155.381C1008.65 154.53 995.024 140.814 995.722 135.951C997.918 134.937 1001.1 132.681 1003.11 131.094Z" fill="#FF983E"/>
<path fill-rule="evenodd" clip-rule="evenodd" d="M991.059 141.585C994.871 146.59 996.878 151.469 1001.94 155.186L1010.1 159.654L1004.66 165.095C997.618 163.261 990.262 157.494 986.396 152.271C987.051 148.201 989.318 144.725 991.059 141.585Z" fill="#FF983E"/>
<path fill-rule="evenodd" clip-rule="evenodd" d="M985.036 159.461C990.134 163.294 993.719 167.406 1001.75 168.593C999.043 172.092 993.173 176.79 988.727 178.308C986.887 172.5 985.049 167.429 985.036 159.461Z" fill="#FF983E"/>
<defs>
<linearGradient id="paint0_linear_150_182" x1="907.349" y1="151.774" x2="920.787" y2="409.395" gradientUnits="userSpaceOnUse">
<stop offset="0.421342" stop-color="#F99A42"/>
<stop offset="0.490385" stop-color="#ED6F00"/>
</linearGradient>
<linearGradient id="paint1_linear_150_182" x1="897.349" y1="151.774" x2="910.787" y2="409.395" gradientUnits="userSpaceOnUse">
<stop offset="0.421342" stop-color="#F99A42"/>
<stop offset="0.490385" stop-color="#ED6F00"/>
</linearGradient>
<linearGradient id="paint2_linear_150_182" x1="760.767" y1="151.774" x2="774.205" y2="409.395" gradientUnits="userSpaceOnUse">
<stop offset="0.421342" stop-color="#F99A42"/>
<stop offset="0.490385" stop-color="#ED6F00"/>
</linearGradient>
<linearGradient id="paint3_linear_150_182" x1="877.349" y1="151.774" x2="890.787" y2="409.395" gradientUnits="userSpaceOnUse">
<stop offset="0.421342" stop-color="#F99A42"/>
<stop offset="0.490385" stop-color="#ED6F00"/>
</linearGradient>
<linearGradient id="paint4_linear_150_182" x1="340.752" y1="214.564" x2="358.859" y2="445.333" gradientUnits="userSpaceOnUse">
<stop offset="0.421342" stop-color="#F99A42"/>
<stop offset="0.490385" stop-color="#ED6F00"/>
</linearGradient>
<linearGradient id="paint5_linear_150_182" x1="1158.9" y1="200.159" x2="1241.65" y2="403.811" gradientUnits="userSpaceOnUse">
<stop offset="0.421342" stop-color="#F99A42"/>
<stop offset="0.490385" stop-color="#ED6F00"/>
</linearGradient>
</defs>
</svg>
